{
	"asset":{
		"generator":"Khronos glTF Blender I/O v4.1.63",
		"version":"2.0"
	},
	"scene":0,
	"scenes":[
		{
			"name":"Scene",
			"nodes":[
				0
			]
		}
	],
	"nodes":[
		{
			"mesh":0,
			"name":"Sph\u00e8re.001",
			"rotation":[
				-0.012675796635448933,
				0.8340343236923218,
				-0.0014875777997076511,
				0.5515649914741516
			],
			"scale":[
				0.7282861471176147,
				1,
				1
			],
			"translation":[
				-2.1844544410705566,
				0.24378764629364014,
				1.343131184577942
			]
		}
	],
	"materials":[
		{
			"doubleSided":true,
			"name":"Mat\u00e9riau",
			"pbrMetallicRoughness":{
				"baseColorFactor":[
					0.8022921085357666,
					0.7013051509857178,
					0.20850424468517303,
					1
				],
				"metallicFactor":0.4000000059604645,
				"roughnessFactor":0.5
			}
		}
	],
	"meshes":[
		{
			"name":"Sph\u00e8re.003",
			"primitives":[
				{
					"attributes":{
						"POSITION":0,
						"NORMAL":1,
						"TEXCOORD_0":2
					},
					"indices":3,
					"material":0
				}
			]
		}
	],
	"accessors":[
		{
			"bufferView":0,
			"componentType":5126,
			"count":20096,
			"max":[
				4.6096086502075195,
				2.476875066757202,
				2.4529483318328857
			],
			"min":[
				-0.7367764115333557,
				-1.8805663585662842,
				-2.4529500007629395
			],
			"type":"VEC3"
		},
		{
			"bufferView":1,
			"componentType":5126,
			"count":20096,
			"type":"VEC3"
		},
		{
			"bufferView":2,
			"componentType":5126,
			"count":20096,
			"type":"VEC2"
		},
		{
			"bufferView":3,
			"componentType":5123,
			"count":29172,
			"type":"SCALAR"
		}
	],
	"bufferViews":[
		{
			"buffer":0,
			"byteLength":241152,
			"byteOffset":0,
			"target":34962
		},
		{
			"buffer":0,
			"byteLength":241152,
			"byteOffset":241152,
			"target":34962
		},
		{
			"buffer":0,
			"byteLength":160768,
			"byteOffset":482304,
			"target":34962
		},
		{
			"buffer":0,
			"byteLength":58344,
			"byteOffset":643072,
			"target":34963
		}
	],
	"buffers":[
		{
			"byteLength":701416,
			"uri":"sans_nom.bin"
		}
	]
}
